<svg width="30" height="30" viewBox="0 0 30 30" fill="none" xmlns="http://www.w3.org/2000/svg">
<path d="M9.4105 15.6518C13.7589 8.80759 18.6437 13.0282 20.3235 15.6518C20.8591 16.4883 21.8388 17.4009 22.8517 18.3134C24.4215 19.7278 26.0118 20.5188 26.9809 21.9637C28.8057 24.6843 27.454 26.7926 27.0231 27.5531C25.5062 30.23 21.2224 30.088 19.2702 29.6824C12.4021 27.5911 6.79811 32.8384 2.96379 27.5531C-0.103663 23.3249 4.46557 19.8515 6.79811 18.1994C8.94537 16.6784 9.4105 15.6518 9.4105 15.6518Z" fill="#1E46E1"/>
<path d="M7.55495 3.9783C8.01579 0.782066 9.92242 0 10.7531 0H10.7532C11.696 1.84097e-05 14.3683 7.05719e-05 14.8235 3.9783C15.2887 8.04413 12.2484 9.01005 10.7531 8.88611C9.64675 8.88611 7.09574 7.16322 7.55495 3.9783Z" fill="#1E46E1"/>
<path d="M22.1376 13.0466C22.6329 9.7133 24.6819 8.89771 25.5746 8.89771H25.5746C26.5879 8.89772 29.4597 8.89778 29.9488 13.0466C30.4488 17.2867 27.1814 18.294 25.5746 18.1648C24.3856 18.1648 21.6442 16.368 22.1376 13.0466Z" fill="#1E46E1"/>
<path d="M7.44446 10.739C6.74163 7.79482 5.30903 7.1104 4.19034 6.69214C3.75002 6.52751 0.511907 6.69214 0.0487585 10.739C-0.424578 14.8748 2.66894 15.8574 4.19034 15.7313C5.31606 15.7313 8.20688 13.9328 7.44446 10.739Z" fill="#1E46E1"/>
<path d="M16.8231 4.14192C18.1114 1.36368 19.6586 0.927533 20.8433 0.701187C21.3095 0.612097 24.4595 1.30897 24.0937 5.36391C23.7199 9.50806 20.4793 9.96286 19.0092 9.58755C17.9025 9.40154 15.4255 7.15579 16.8231 4.14192Z" fill="#1E46E1"/>
</svg>
