<svg width="30" height="33" viewBox="0 0 30 33" fill="none" xmlns="http://www.w3.org/2000/svg">
<path fill-rule="evenodd" clip-rule="evenodd" d="M1.625 12.625V24.25C1.625 28.5302 5.09479 32 9.375 32H21C25.2802 32 28.75 28.5302 28.75 24.25V12.625C28.75 8.34479 25.2802 4.875 21 4.875H9.375C5.09479 4.875 1.625 8.34479 1.625 12.625Z" stroke="#111111" stroke-width="1.8" stroke-linecap="round" stroke-linejoin="round"/>
<path d="M20.1 6.8125C20.1 7.30956 20.5029 7.7125 21 7.7125C21.4971 7.7125 21.9 7.30956 21.9 6.8125H20.1ZM21.9 1C21.9 0.502944 21.4971 0.1 21 0.1C20.5029 0.1 20.1 0.502944 20.1 1H21.9ZM8.475 6.8125C8.475 7.30956 8.87794 7.7125 9.375 7.7125C9.87206 7.7125 10.275 7.30956 10.275 6.8125H8.475ZM10.275 1C10.275 0.502944 9.87206 0.1 9.375 0.1C8.87794 0.1 8.475 0.502944 8.475 1H10.275ZM8.475 15.1165C8.475 15.6136 8.87794 16.0165 9.375 16.0165C9.87206 16.0165 10.275 15.6136 10.275 15.1165H8.475ZM15.1875 15.1165L16.0859 15.1701C16.087 15.1522 16.0875 15.1344 16.0875 15.1165H15.1875ZM13.9547 17.5993L14.5404 18.2827L14.5404 18.2827L13.9547 17.5993ZM11.3125 18.4374L11.2278 17.5414C10.7656 17.5851 10.4125 17.9732 10.4125 18.4374C10.4125 18.9017 10.7656 19.2898 11.2278 19.3334L11.3125 18.4374ZM13.9547 19.2756L14.5404 18.5922L14.5404 18.5922L13.9547 19.2756ZM15.1875 21.7583H16.0875C16.0875 21.7404 16.087 21.7226 16.0859 21.7048L15.1875 21.7583ZM10.275 21.7583C10.275 21.2612 9.87206 20.8583 9.375 20.8583C8.87794 20.8583 8.475 21.2612 8.475 21.7583H10.275ZM18.4768 13.6021C18.0994 13.9255 18.0557 14.4937 18.3791 14.8711C18.7026 15.2485 19.2707 15.2923 19.6482 14.9688L18.4768 13.6021ZM21 12.625H21.9C21.9 12.2735 21.6954 11.9542 21.3761 11.8074C21.0568 11.6605 20.6812 11.7129 20.4143 11.9416L21 12.625ZM20.1 24.25C20.1 24.7471 20.5029 25.15 21 25.15C21.4971 25.15 21.9 24.7471 21.9 24.25H20.1ZM21.9 6.8125V1H20.1V6.8125H21.9ZM10.275 6.8125V1H8.475V6.8125H10.275ZM10.275 15.1165C10.275 14.5833 10.4941 14.2193 10.8286 13.9645C11.1881 13.6906 11.7124 13.5259 12.2812 13.5259C12.8501 13.5259 13.3744 13.6906 13.7339 13.9645C14.0684 14.2193 14.2875 14.5833 14.2875 15.1165H16.0875C16.0875 13.9894 15.58 13.108 14.8247 12.5326C14.0944 11.9763 13.1656 11.7259 12.2812 11.7259C11.3969 11.7259 10.4681 11.9763 9.73782 12.5326C8.9825 13.108 8.475 13.9894 8.475 15.1165H10.275ZM14.2891 15.063C14.2464 15.7799 13.9143 16.4486 13.3691 16.9159L14.5404 18.2827C15.4564 17.4977 16.0142 16.3743 16.0859 15.1701L14.2891 15.063ZM13.3691 16.9159C12.8238 17.3832 12.1121 17.609 11.3972 17.5414L11.2278 19.3334C12.4288 19.4469 13.6244 19.0677 14.5404 18.2827L13.3691 16.9159ZM11.3972 19.3334C12.1121 19.2659 12.8238 19.4916 13.3691 19.9589L14.5404 18.5922C13.6244 17.8072 12.4288 17.4279 11.2278 17.5414L11.3972 19.3334ZM13.3691 19.9589C13.9143 20.4262 14.2464 21.095 14.2891 21.8118L16.0859 21.7048C16.0142 20.5006 15.4564 19.3772 14.5404 18.5922L13.3691 19.9589ZM14.2875 21.7583C14.2875 22.2916 14.0684 22.6555 13.7339 22.9104C13.3744 23.1843 12.8501 23.349 12.2812 23.349C11.7124 23.349 11.1881 23.1843 10.8286 22.9104C10.4941 22.6555 10.275 22.2916 10.275 21.7583H8.475C8.475 22.8854 8.9825 23.7668 9.73782 24.3422C10.4681 24.8985 11.3969 25.149 12.2812 25.149C13.1656 25.149 14.0944 24.8985 14.8247 24.3422C15.58 23.7668 16.0875 22.8854 16.0875 21.7583H14.2875ZM19.6482 14.9688L21.5857 13.3084L20.4143 11.9416L18.4768 13.6021L19.6482 14.9688ZM20.1 12.625V24.25H21.9V12.625H20.1Z" fill="#111111"/>
</svg>
