<svg width="30" height="30" viewBox="0 0 30 30" fill="none" xmlns="http://www.w3.org/2000/svg">
<path d="M30 15C30 23.2843 23.2843 30 15 30C6.71573 30 0 23.2843 0 15C0 6.71573 6.71573 0 15 0C23.2843 0 30 6.71573 30 15ZM0.906362 15C0.906362 22.7837 7.2163 29.0936 15 29.0936C22.7837 29.0936 29.0936 22.7837 29.0936 15C29.0936 7.2163 22.7837 0.906362 15 0.906362C7.2163 0.906362 0.906362 7.2163 0.906362 15Z" fill="#DD5833"/>
<path d="M8.70005 16.4251L11.4375 28.8001C11.55 28.9751 11.7975 29.3326 11.8875 29.3626C11.9775 29.3926 16.6 29.2751 18.9001 29.2126V28.6876C18.35 27.8876 17.22 26.2351 17.1 26.0251C16.9801 25.8151 17.05 25.7876 17.1 25.8001C17.5751 25.9501 18.6526 26.2951 19.1625 26.4751C19.6726 26.6551 19.7751 26.2501 19.7626 26.0251V23.0251C19.7626 22.5451 19.4125 22.4751 19.2376 22.5001C19.0126 22.4626 17.4376 23.4376 17.0626 23.8126C16.7626 24.1126 16.5625 23.9376 16.5 23.8126C16.2301 23.8726 16.1125 23.7126 16.0876 23.6251C15.3976 22.3651 15.425 20.2751 15.525 19.3876C16.125 20.0001 17.9851 21.0976 20.6251 20.5876C23.2651 20.0776 24.0001 19.4751 24.0376 19.2376C24.0376 19.1001 24.0001 18.8101 23.8501 18.7501C23.7001 18.6901 22.7626 18.7751 22.3126 18.8251C21.7501 18.9251 20.2426 19.1101 18.7126 19.0501C17.1826 18.9901 16.8 18.4001 16.8 18.1126V17.4001H19.6876C20.1076 17.5801 23.0126 16.3501 24.4126 15.7126C24.8626 15.5251 25.6051 15.0301 24.9751 14.5501C24.1876 13.9501 20.8501 15.0001 20.6251 15.1501C20.4451 15.2701 19.9001 15.3751 19.6501 15.4126L19.6876 15.3001C20.0176 14.0401 19.1751 11.6751 18.7126 10.6501C17.175 8.02513 15.9001 8.13764 15.6375 8.02513C15.4275 7.93513 15.275 7.78764 15.225 7.72514C14.025 6.33764 11.625 5.58763 11.4375 5.51263C11.2875 5.45263 10.575 5.31264 10.2375 5.25014C9.93755 5.22514 9.22505 5.21264 8.77505 5.36264C8.32505 5.51264 8.06255 6.05014 7.98755 6.30014H10.2375C10.3875 6.30014 11.4375 6.56264 11.4375 6.71264C11.4375 6.86264 9.75005 7.31264 9.26255 7.35014C8.87255 7.38014 8.72505 7.66264 8.70005 7.80014C9.77505 7.73764 12 7.63514 12.3 7.72514C12.6 7.81514 12.625 7.91264 12.6 7.95014L11.4375 8.13764C7.50755 8.85764 7.97505 13.9626 8.70005 16.4251Z" fill="#DD5833"/>
</svg>
