<svg width="30" height="30" viewBox="0 0 30 30" fill="none" xmlns="http://www.w3.org/2000/svg">
<path d="M28.1262 15.2917C28.1262 14.2126 28.0368 13.4251 27.8434 12.6084H15.269V17.4792H22.6499C22.5012 18.6896 21.6976 20.5126 19.9119 21.7375L19.8868 21.9006L23.8626 24.919L24.1381 24.9459C26.6678 22.6563 28.1262 19.2875 28.1262 15.2917" fill="#4285F4"/>
<path d="M15.2685 28.1252C18.8845 28.1252 21.9201 26.9585 24.1375 24.946L19.9113 21.7376C18.7804 22.5105 17.2625 23.0501 15.2685 23.0501C11.7268 23.0501 8.72092 20.7606 7.6494 17.5959L7.49234 17.609L3.35826 20.7445L3.3042 20.8918C5.50655 25.1793 10.0304 28.1252 15.2685 28.1252Z" fill="#34A853"/>
<path d="M7.65021 17.5958C7.36748 16.7792 7.20385 15.9041 7.20385 15C7.20385 14.0958 7.36748 13.2208 7.63534 12.4042L7.62785 12.2302L3.44196 9.04443L3.305 9.10827C2.3973 10.8875 1.87646 12.8854 1.87646 15C1.87646 17.1146 2.3973 19.1124 3.305 20.8916L7.65021 17.5958" fill="#FBBC05"/>
<path d="M15.2685 6.94996C17.7834 6.94996 19.4798 8.01454 20.4471 8.90419L24.2268 5.2875C21.9055 3.17292 18.8846 1.875 15.2685 1.875C10.0304 1.875 5.50656 4.82081 3.3042 9.10827L7.63455 12.4042C8.72095 9.23958 11.7269 6.94996 15.2685 6.94996" fill="#EB4335"/>
</svg>
