<svg width="30" height="30" viewBox="0 0 30 30" fill="none" xmlns="http://www.w3.org/2000/svg">
<path d="M15 0C6.72656 0 0 6.72656 0 15C0 23.2734 6.72656 30 15 30C23.2734 30 30 23.2734 30 15C30 6.72656 23.2734 0 15 0Z" fill="#F48024"/>
<path d="M18.8719 17.6043L10.8756 16.4485L11.1527 14.6971L18.9721 16.2009L18.8719 17.6043Z" fill="white"/>
<path d="M19.0134 15.7409L11.937 12.4386L12.5857 11.0233L19.6621 14.3256L19.0134 15.7409Z" fill="white"/>
<path d="M19.9569 13.9718L13.942 8.95935L14.9445 7.77995L20.9594 12.7924L19.9569 13.9718Z" fill="white"/>
<path d="M16.5367 6.24673L17.775 5.30322L22.4337 11.554L21.1953 12.4976L16.5367 6.24673Z" fill="white"/>
<path d="M18.8955 19.9278H10.6397V18.1587H18.8955V19.9278Z" fill="white"/>
<path d="M20.0748 16.3894V21.107H9.46026V16.3894H7.69116V22.8761H21.8439V16.3894H20.0748Z" fill="white"/>
</svg>
